<?xml version="1.0" encoding="iso-8859-1"?>
<!-- Uploaded to: SVG Repo, www.svgrepo.com, Generator: SVG Repo Mixer Tools -->
<svg fill="#000000" height="800px" width="800px" version="1.1" id="Layer_1" xmlns="http://www.w3.org/2000/svg" xmlns:xlink="http://www.w3.org/1999/xlink" 
	 viewBox="0 0 512 512" xml:space="preserve">
<g>
	<g>
		<path d="M451.555,195.55c-5.063,0-9.165,4.102-9.165,9.165v23.036c0,44.858-21.787,87.478-58.281,114.006
			c-2.372,1.724-3.776,4.48-3.776,7.413v20.17c0,68.557-55.774,124.33-124.33,124.33s-124.328-55.774-124.328-124.33v-20.169
			c0-2.933-1.403-5.688-3.776-7.413c-36.496-26.532-58.286-69.152-58.286-114.008v-23.036
			C69.612,101.943,153.225,18.33,256.003,18.33c55.001,0,106.922,24.122,142.451,66.181c3.265,3.865,9.048,4.354,12.915,1.088
			c3.866-3.266,4.354-9.049,1.088-12.915C373.437,26.492,316.413,0,255.998,0C143.117,0,51.282,91.834,51.282,204.715v23.036
			c0,49.133,23.115,95.883,62.062,126.001v15.588c0,78.662,63.997,142.66,142.66,142.66s142.658-63.997,142.658-142.66v-15.589
			c38.943-30.116,62.057-76.865,62.057-126v-23.036C460.72,199.654,456.617,195.55,451.555,195.55z"/>
	</g>
</g>
<g>
	<g>
		<path d="M446.091,128.581c-1.003-2.506-2.071-5.021-3.174-7.479c-2.07-4.618-7.495-6.683-12.112-4.613s-6.684,7.493-4.613,12.112
			c1.001,2.231,1.971,4.519,2.884,6.798c1.435,3.581,4.875,5.758,8.51,5.758c1.135,0,2.289-0.213,3.407-0.66
			C445.691,138.615,447.974,133.281,446.091,128.581z"/>
	</g>
</g>
<g>
	<g>
		<path d="M233.089,164.822c-1.07-5.501-3.296-16.95-13.062-19.322c-7.459-1.81-13.376,3.205-18.666,8.894
			c-4.78,5.14-8.301,9.958-11.706,14.619c-5.657,7.741-10.541,14.427-20.316,21.167c-11.225,7.741-18.771,11.825-24.281,14.807
			c-6.594,3.569-11.357,6.147-15.821,11.484c-4.426,5.295-10.49,12.546-9.176,22.506c1.948,14.781,18.346,21.494,23.328,23.198
			c4.523,1.548,9.222,2.321,14.085,2.321c12.277,0,25.601-4.923,39.787-14.728c23.759-16.424,31.057-39.896,33.804-48.733
			C232.74,195.643,236.295,181.314,233.089,164.822z M213.559,195.597c-2.443,7.861-8.167,26.268-26.724,39.095
			c-14.756,10.199-27.379,13.612-37.512,10.143c-5.059-1.733-10.723-5.462-11.091-8.253c-0.262-1.981,2.692-5.512,5.065-8.35
			c2.107-2.519,4.339-3.797,10.485-7.123c5.878-3.182,13.926-7.537,25.963-15.84c12.335-8.506,18.626-17.117,24.71-25.443
			c3.232-4.424,6.286-8.602,10.327-12.948c0.006-0.006,0.012-0.012,0.018-0.02c0.097,0.458,0.196,0.945,0.296,1.46
			C217.574,181.071,214.547,192.423,213.559,195.597z"/>
	</g>
</g>
<g>
	<g>
		<path d="M388.655,216.474c-4.464-5.338-9.229-7.916-15.82-11.484c-5.51-2.982-13.057-7.066-24.281-14.807
			c-9.775-6.742-14.659-13.426-20.316-21.167c-3.404-4.659-6.925-9.479-11.704-14.618c-5.291-5.691-11.216-10.71-18.665-8.895
			c-9.769,2.371-11.994,13.821-13.064,19.323c-3.205,16.491,0.348,30.82,2.025,36.216c2.746,8.831,10.044,32.304,33.803,48.728
			c14.182,9.803,27.506,14.727,39.783,14.727c4.864,0,9.563-0.772,14.088-2.321c4.98-1.705,21.379-8.413,23.328-23.198
			C399.145,229.021,393.082,221.769,388.655,216.474z M379.661,236.582c-0.369,2.792-6.032,6.522-11.091,8.253
			c-10.139,3.468-22.758,0.056-37.513-10.144c-18.557-12.826-24.28-31.234-26.723-39.093c-0.989-3.176-4.017-14.528-1.537-27.279
			c0.1-0.517,0.199-1.003,0.296-1.461c0.007,0.007,0.013,0.013,0.02,0.021c4.041,4.345,7.095,8.523,10.326,12.947
			c6.084,8.327,12.375,16.937,24.71,25.443c12.038,8.302,20.086,12.657,25.961,15.84c6.147,3.326,8.379,4.606,10.485,7.123
			C376.967,231.07,379.921,234.602,379.661,236.582z"/>
	</g>
</g>
<g>
	<g>
		<path d="M302.153,296.817c-5.685-13.725-20.576-23.78-37.056-25.017c-2.51-0.193-24.854-1.338-37.706,15.929
			c-5.203,6.989-7.677,17.29-7.35,30.622c0.307,12.551,3.017,19.534,5.886,26.928c1.832,4.718,3.908,10.068,5.833,18.106
			c1.669,6.963,2.815,14.169,3.924,21.138c2.68,16.856,4.798,30.17,13.512,36.407c3.863,2.759,7.815,4.15,11.776,4.15
			c0.767,0,1.537-0.053,2.305-0.158c4.537-0.618,8.6-3.009,12.076-7.103c6.71-7.899,9.319-22.259,11.809-38.83
			c0.33-2.185,0.631-4.195,0.924-5.922c1.196-7.048,2.346-9.976,4.085-14.41c2.063-5.255,4.629-11.795,8.069-26.587
			C305.259,310.482,304.823,303.261,302.153,296.817z M282.386,327.921c-3.137,13.491-5.338,19.096-7.278,24.043
			c-1.921,4.895-3.58,9.123-5.095,18.039c-0.31,1.828-0.631,3.952-0.978,6.264c-1.226,8.156-3.777,25.125-7.655,29.69
			c-0.119,0.139-0.369,0.433-0.604,0.655c-0.348-0.182-0.745-0.466-0.874-0.555c-2.607-2.333-4.718-15.62-6.117-24.412
			c-1.108-6.973-2.366-14.875-4.2-22.53c-2.216-9.243-4.63-15.468-6.572-20.47c-2.663-6.859-4.421-11.391-4.651-20.741
			c-0.214-8.75,1.145-15.755,3.73-19.227c5.929-7.965,17.048-8.622,20.548-8.622c0.671,0,1.062,0.024,1.084,0.026
			c9.446,0.71,18.486,6.492,21.494,13.754C285.702,305.005,286.991,308.113,282.386,327.921z"/>
	</g>
</g>
</svg>